<svg width="129" height="26" viewBox="0 0 129 26" fill="none" xmlns="http://www.w3.org/2000/svg">
<path d="M8.67201 10.08C9.86667 10.2507 10.912 10.4747 11.808 10.752C12.704 11.0293 13.472 11.3493 14.112 11.712C14.7733 12.0747 15.3173 12.4587 15.744 12.864C16.1707 13.2693 16.5227 13.6747 16.8 14.08C17.44 15.0187 17.7707 16.0427 17.792 17.152C17.792 18.112 17.6747 18.9653 17.44 19.712C17.2053 20.4587 16.8853 21.1093 16.48 21.664C16.096 22.1973 15.648 22.656 15.136 23.04C14.6453 23.4027 14.144 23.712 13.632 23.968C12.416 24.544 11.0293 24.8853 9.47201 24.992C8.27734 25.0773 7.22134 25.0773 6.30401 24.992C5.38667 24.9067 4.58667 24.768 3.90401 24.576C3.24267 24.3627 2.67734 24.1173 2.208 23.84C1.76 23.5627 1.39734 23.264 1.12 22.944C0.416005 22.2187 0.0426716 21.3653 4.88758e-06 20.384C4.88758e-06 19.68 0.0960049 19.0827 0.288005 18.592C0.480005 18.1013 0.746672 17.696 1.08801 17.376C1.42934 17.0347 1.81334 16.768 2.24001 16.576C2.688 16.3627 3.136 16.2027 3.584 16.096C4.65067 15.8613 5.86667 15.8293 7.23201 16C6.29334 15.7867 5.48267 15.52 4.8 15.2C4.13867 14.8587 3.57334 14.4853 3.104 14.08C2.63467 13.6533 2.25067 13.216 1.952 12.768C1.67467 12.32 1.45067 11.8827 1.28 11.456C0.896005 10.432 0.768005 9.34399 0.896005 8.19199C1.00267 7.40265 1.18401 6.70932 1.44001 6.11199C1.71734 5.51465 2.03734 5.00265 2.40001 4.57599C2.76267 4.14932 3.14667 3.79732 3.55201 3.51999C3.97867 3.22132 4.40534 2.98665 4.83201 2.81599C5.83467 2.41065 6.93334 2.20799 8.12801 2.20799C10.112 2.12265 11.68 2.22932 12.832 2.52799C14.0053 2.80532 14.88 3.17865 15.456 3.64799C16.0533 4.11732 16.416 4.63999 16.544 5.21599C16.6933 5.77065 16.7467 6.28265 16.704 6.75199C16.64 7.28532 16.48 7.74399 16.224 8.12799C15.968 8.49065 15.648 8.79999 15.264 9.05599C14.88 9.31199 14.4427 9.52532 13.952 9.69599C13.4827 9.84532 13.0027 9.95199 12.512 10.016C11.36 10.208 10.08 10.2293 8.67201 10.08ZM36.16 21.088C35.8187 21.7067 35.4133 22.2507 34.944 22.72C34.496 23.168 34.0587 23.5413 33.632 23.84C33.1413 24.2027 32.64 24.4907 32.128 24.704C31.7013 24.8747 31.2853 25.0027 30.88 25.088C30.496 25.1947 30.1547 25.2693 29.856 25.312C29.4933 25.376 29.1733 25.408 28.896 25.408C27.7227 25.408 26.688 25.2907 25.792 25.056C24.9173 24.8213 24.1493 24.5227 23.488 24.16C22.8267 23.776 22.2613 23.3387 21.792 22.848C21.344 22.3573 20.9813 21.856 20.704 21.344C20 20.1707 19.616 18.816 19.552 17.28C19.552 16.0427 19.68 14.976 19.936 14.08C20.2133 13.1627 20.5653 12.384 20.992 11.744C21.44 11.0827 21.9413 10.5387 22.496 10.112C23.072 9.68532 23.648 9.34399 24.224 9.08799C25.5893 8.49065 27.1467 8.22399 28.896 8.28799C29.92 8.28799 30.8267 8.40532 31.616 8.63999C32.4053 8.87465 33.088 9.18399 33.664 9.56799C34.2613 9.95199 34.752 10.3893 35.136 10.88C35.5413 11.3493 35.872 11.84 36.128 12.352C36.7253 13.5253 37.0667 14.8693 37.152 16.384C37.152 17.3867 37.056 18.272 36.864 19.04C36.6933 19.808 36.4587 20.4907 36.16 21.088ZM28.704 16.032C28.3413 16.032 28.0213 16.1707 27.744 16.448C27.488 16.7253 27.3813 17.0347 27.424 17.376C27.4667 17.824 27.5947 18.1333 27.808 18.304C28.0427 18.4747 28.3413 18.56 28.704 18.56C29.0667 18.56 29.3653 18.4533 29.6 18.24C29.8347 18.0267 29.952 17.7387 29.952 17.376C29.952 17.0347 29.8453 16.7253 29.632 16.448C29.4187 16.1707 29.1093 16.032 28.704 16.032ZM38.878 18.336C38.7287 17.12 38.654 15.8507 38.654 14.528C38.654 13.184 38.686 11.936 38.75 10.784C38.814 9.46132 38.91 8.15999 39.038 6.87999C39.166 5.70665 39.422 4.65065 39.806 3.71199C39.9767 3.32799 40.1793 2.94399 40.414 2.55999C40.67 2.17599 40.9687 1.83465 41.31 1.53599C41.6513 1.23732 42.046 1.00265 42.494 0.831987C42.9633 0.639987 43.486 0.543987 44.062 0.543987C44.8727 0.56532 45.63 0.82132 46.334 1.31199C46.6113 1.52532 46.8993 1.79199 47.198 2.11199C47.4967 2.43199 47.7633 2.83732 47.998 3.32799C48.254 3.81865 48.4673 4.39465 48.638 5.05599C48.83 5.71732 48.958 6.48532 49.022 7.35999C49.15 9.06665 49.214 10.6987 49.214 12.256C49.214 13.8133 49.1927 15.2 49.15 16.416C49.086 17.8453 48.99 19.1787 48.862 20.416C48.7553 21.3547 48.51 22.176 48.126 22.88C47.9553 23.1787 47.742 23.4773 47.486 23.776C47.2513 24.0747 46.9527 24.3413 46.59 24.576C46.2487 24.7893 45.8433 24.96 45.374 25.088C44.9047 25.216 44.3713 25.2693 43.774 25.248C43.2193 25.2267 42.718 25.1093 42.27 24.896C41.8433 24.704 41.4593 24.448 41.118 24.128C40.7767 23.808 40.4887 23.4453 40.254 23.04C40.0193 22.6133 39.8167 22.1867 39.646 21.76C39.262 20.7573 39.006 19.616 38.878 18.336Z" fill="#E5AF10"/>
<path d="M63.7278 8.38399C64.5811 8.14932 65.3491 8.05332 66.0318 8.09599C66.6078 8.13865 67.1411 8.33065 67.6318 8.67199C68.1224 8.99199 68.3891 9.58932 68.4318 10.464C68.4531 11.3387 68.2611 11.968 67.8558 12.352C67.4504 12.736 66.9918 12.992 66.4798 13.12C65.8824 13.2693 65.1998 13.2907 64.4318 13.184C64.7304 15.4027 64.7944 17.3973 64.6238 19.168C64.5598 19.9147 64.4318 20.6507 64.2398 21.376C64.0478 22.1013 63.7704 22.752 63.4078 23.328C63.0664 23.904 62.6184 24.3733 62.0638 24.736C61.5304 25.0987 60.8691 25.2907 60.0798 25.312C58.6931 25.376 57.6264 25.1413 56.8798 24.608C56.1544 24.0533 55.6211 23.2427 55.2798 22.176C54.9598 21.1093 54.7784 19.8187 54.7358 18.304C54.6931 16.7893 54.6931 15.0827 54.7358 13.184C53.9251 13.4187 53.1998 13.4933 52.5598 13.408C52.2824 13.3867 52.0051 13.3227 51.7278 13.216C51.4718 13.1093 51.2264 12.96 50.9918 12.768C50.7784 12.576 50.5971 12.3307 50.4478 12.032C50.3198 11.712 50.2451 11.3173 50.2238 10.848C50.2024 10.208 50.3411 9.69599 50.6398 9.31199C50.9598 8.92799 51.3544 8.65065 51.8238 8.47999C52.2931 8.30932 52.7944 8.22399 53.3278 8.22399C53.8611 8.20265 54.3304 8.23465 54.7358 8.31999C54.6931 7.72265 54.7144 7.10399 54.7998 6.46399C54.8851 5.90932 55.0451 5.29065 55.2798 4.60799C55.5358 3.92532 55.9304 3.24265 56.4638 2.55999C57.0398 1.87732 57.7544 1.33332 58.6078 0.927986C59.3544 0.56532 60.2931 0.319987 61.4238 0.191986C62.5758 0.0639865 63.9731 0.21332 65.6158 0.639986C66.0851 0.810653 66.5118 1.02399 66.8958 1.27999C67.2158 1.51465 67.4931 1.82399 67.7278 2.20799C67.9624 2.57065 68.0478 3.02932 67.9838 3.58399C67.9624 3.96799 67.8664 4.30932 67.6958 4.60799C67.5464 4.86399 67.3224 5.09865 67.0238 5.31199C66.7464 5.50399 66.3411 5.58932 65.8078 5.56799C65.5091 5.56799 65.2424 5.61065 65.0078 5.69599C64.7944 5.75999 64.5811 5.86665 64.3678 6.01599C64.1544 6.16532 63.9944 6.38932 63.8878 6.68799C63.8451 6.79465 63.8131 6.93332 63.7918 7.10399C63.7278 7.42399 63.7064 7.85065 63.7278 8.38399Z" fill="black"/>
<path d="M85.3163 21.088C84.9749 21.7067 84.5696 22.2507 84.1003 22.72C83.6523 23.168 83.2149 23.5413 82.7883 23.84C82.2976 24.2027 81.7963 24.4907 81.2843 24.704C80.8576 24.8747 80.4416 25.0027 80.0363 25.088C79.6523 25.1947 79.3109 25.2693 79.0123 25.312C78.6496 25.376 78.3296 25.408 78.0523 25.408C76.8789 25.408 75.8443 25.2907 74.9483 25.056C74.0736 24.8213 73.3056 24.5227 72.6443 24.16C71.9829 23.776 71.4176 23.3387 70.9483 22.848C70.5003 22.3573 70.1376 21.856 69.8603 21.344C69.1563 20.1707 68.7723 18.816 68.7083 17.28C68.7083 16.0427 68.8363 14.976 69.0923 14.08C69.3696 13.1627 69.7216 12.384 70.1483 11.744C70.5963 11.0827 71.0976 10.5387 71.6523 10.112C72.2283 9.68532 72.8043 9.34399 73.3803 9.08799C74.7456 8.49065 76.3029 8.22399 78.0523 8.28799C79.0763 8.28799 79.9829 8.40532 80.7723 8.63999C81.5616 8.87465 82.2443 9.18399 82.8203 9.56799C83.4176 9.95199 83.9083 10.3893 84.2923 10.88C84.6976 11.3493 85.0283 11.84 85.2843 12.352C85.8816 13.5253 86.2229 14.8693 86.3083 16.384C86.3083 17.3867 86.2123 18.272 86.0203 19.04C85.8496 19.808 85.6149 20.4907 85.3163 21.088ZM77.8603 16.032C77.4976 16.032 77.1776 16.1707 76.9003 16.448C76.6443 16.7253 76.5376 17.0347 76.5803 17.376C76.6229 17.824 76.7509 18.1333 76.9643 18.304C77.1989 18.4747 77.4976 18.56 77.8603 18.56C78.2229 18.56 78.5216 18.4533 78.7563 18.24C78.9909 18.0267 79.1083 17.7387 79.1083 17.376C79.1083 17.0347 79.0016 16.7253 78.7883 16.448C78.5749 16.1707 78.2656 16.032 77.8603 16.032ZM104.066 21.088C103.725 21.7067 103.32 22.2507 102.85 22.72C102.402 23.168 101.965 23.5413 101.538 23.84C101.048 24.2027 100.546 24.4907 100.034 24.704C99.6076 24.8747 99.1916 25.0027 98.7863 25.088C98.4023 25.1947 98.0609 25.2693 97.7623 25.312C97.3996 25.376 97.0796 25.408 96.8023 25.408C95.6289 25.408 94.5943 25.2907 93.6983 25.056C92.8236 24.8213 92.0556 24.5227 91.3943 24.16C90.7329 23.776 90.1676 23.3387 89.6983 22.848C89.2503 22.3573 88.8876 21.856 88.6103 21.344C87.9063 20.1707 87.5223 18.816 87.4583 17.28C87.4583 16.0427 87.5863 14.976 87.8423 14.08C88.1196 13.1627 88.4716 12.384 88.8983 11.744C89.3463 11.0827 89.8476 10.5387 90.4023 10.112C90.9783 9.68532 91.5543 9.34399 92.1303 9.08799C93.4956 8.49065 95.0529 8.22399 96.8023 8.28799C97.8263 8.28799 98.7329 8.40532 99.5223 8.63999C100.312 8.87465 100.994 9.18399 101.57 9.56799C102.168 9.95199 102.658 10.3893 103.042 10.88C103.448 11.3493 103.778 11.84 104.034 12.352C104.632 13.5253 104.973 14.8693 105.058 16.384C105.058 17.3867 104.962 18.272 104.77 19.04C104.6 19.808 104.365 20.4907 104.066 21.088ZM96.6103 16.032C96.2476 16.032 95.9276 16.1707 95.6503 16.448C95.3943 16.7253 95.2876 17.0347 95.3303 17.376C95.3729 17.824 95.5009 18.1333 95.7143 18.304C95.9489 18.4747 96.2476 18.56 96.6103 18.56C96.9729 18.56 97.2716 18.4533 97.5063 18.24C97.7409 18.0267 97.8583 17.7387 97.8583 17.376C97.8583 17.0347 97.7516 16.7253 97.5383 16.448C97.3249 16.1707 97.0156 16.032 96.6103 16.032ZM127.584 23.84C127.03 24.416 126.432 24.7467 125.792 24.832C125.174 24.9387 124.587 24.928 124.032 24.8C123.478 24.6933 123.019 24.544 122.656 24.352C122.294 24.16 122.112 24.064 122.112 24.064C121.28 24.4907 120.363 24.8213 119.36 25.056C118.358 25.2907 117.334 25.4293 116.288 25.472C115.264 25.5147 114.262 25.4507 113.28 25.28C112.299 25.1093 111.424 24.8213 110.656 24.416C110.144 24.1173 109.664 23.7653 109.216 23.36C108.832 22.9973 108.438 22.56 108.032 22.048C107.648 21.5147 107.371 20.8853 107.2 20.16C107.03 19.4987 106.912 18.7733 106.848 17.984C106.806 17.1733 106.848 16.352 106.976 15.52C107.104 14.688 107.339 13.888 107.68 13.12C108.022 12.3307 108.512 11.6373 109.152 11.04C110.134 10.1227 111.158 9.51465 112.224 9.21599C113.312 8.91732 114.315 8.76799 115.232 8.76799C116.299 8.78932 117.344 8.94932 118.368 9.24799C118.134 7.64799 118.102 6.21865 118.272 4.95999C118.336 4.42665 118.454 3.90399 118.624 3.39199C118.795 2.85865 119.03 2.38932 119.328 1.98399C119.648 1.57865 120.043 1.25865 120.512 1.02399C121.003 0.767986 121.59 0.639986 122.272 0.639986C122.87 0.639986 123.403 0.72532 123.872 0.895987C124.342 1.06665 124.758 1.29065 125.12 1.56799C125.483 1.84532 125.792 2.16532 126.048 2.52799C126.326 2.86932 126.55 3.22132 126.72 3.58399C127.126 4.43732 127.392 5.41865 127.52 6.52799C127.648 7.70132 127.712 8.91732 127.712 10.176C127.712 11.264 127.638 12.48 127.488 13.824C127.36 15.1467 127.115 16.48 126.752 17.824C127.371 18.1227 127.83 18.528 128.128 19.04C128.448 19.552 128.63 20.096 128.672 20.672C128.715 21.248 128.64 21.824 128.448 22.4C128.256 22.9547 127.968 23.4347 127.584 23.84ZM118.208 15.904C117.846 15.904 117.526 16.0427 117.248 16.32C116.992 16.5973 116.886 16.9067 116.928 17.248C116.971 17.696 117.099 18.0053 117.312 18.176C117.547 18.3467 117.846 18.432 118.208 18.432C118.571 18.432 118.87 18.3253 119.104 18.112C119.339 17.8987 119.456 17.6107 119.456 17.248C119.456 16.9067 119.35 16.5973 119.136 16.32C118.923 16.0427 118.614 15.904 118.208 15.904Z" fill="#767676"/>
</svg>
